<svg width="695" height="768" viewBox="0 0 695 768" fill="none" xmlns="http://www.w3.org/2000/svg">
<rect x="49" y="149" width="646" height="619" fill="#3E3A3A" fill-opacity="0.4"/>
<path d="M601.476 408.561C602.985 405.752 607.015 405.752 608.524 408.561L653.797 492.857C655.228 495.522 653.298 498.75 650.273 498.75H559.727C556.702 498.75 554.772 495.522 556.203 492.857L601.476 408.561Z" fill="#D9D9D9"/>
<path d="M578.938 474V482H577.969V474H578.938ZM583.349 482H580.88V474H583.458C584.234 474 584.898 474.16 585.45 474.48C586.002 474.798 586.425 475.255 586.72 475.852C587.014 476.445 587.161 477.156 587.161 477.984C587.161 478.818 587.013 479.535 586.716 480.137C586.419 480.736 585.987 481.197 585.419 481.52C584.851 481.84 584.161 482 583.349 482ZM581.849 481.141H583.286C583.948 481.141 584.496 481.013 584.931 480.758C585.366 480.503 585.69 480.139 585.903 479.668C586.117 479.197 586.224 478.635 586.224 477.984C586.224 477.339 586.118 476.783 585.907 476.316C585.696 475.848 585.381 475.488 584.962 475.238C584.543 474.986 584.021 474.859 583.396 474.859H581.849V481.141ZM591.099 482.125C590.557 482.125 590.082 481.996 589.673 481.738C589.267 481.48 588.949 481.12 588.72 480.656C588.493 480.193 588.38 479.651 588.38 479.031C588.38 478.406 588.493 477.861 588.72 477.395C588.949 476.928 589.267 476.566 589.673 476.309C590.082 476.051 590.557 475.922 591.099 475.922C591.64 475.922 592.114 476.051 592.521 476.309C592.929 476.566 593.247 476.928 593.474 477.395C593.703 477.861 593.817 478.406 593.817 479.031C593.817 479.651 593.703 480.193 593.474 480.656C593.247 481.12 592.929 481.48 592.521 481.738C592.114 481.996 591.64 482.125 591.099 482.125ZM591.099 481.297C591.51 481.297 591.849 481.191 592.114 480.98C592.38 480.77 592.576 480.492 592.704 480.148C592.832 479.805 592.896 479.432 592.896 479.031C592.896 478.63 592.832 478.257 592.704 477.91C592.576 477.564 592.38 477.284 592.114 477.07C591.849 476.857 591.51 476.75 591.099 476.75C590.687 476.75 590.349 476.857 590.083 477.07C589.817 477.284 589.621 477.564 589.493 477.91C589.366 478.257 589.302 478.63 589.302 479.031C589.302 479.432 589.366 479.805 589.493 480.148C589.621 480.492 589.817 480.77 590.083 480.98C590.349 481.191 590.687 481.297 591.099 481.297ZM597.662 482.125C597.1 482.125 596.615 481.992 596.209 481.727C595.803 481.461 595.49 481.095 595.271 480.629C595.053 480.163 594.943 479.63 594.943 479.031C594.943 478.422 595.055 477.884 595.279 477.418C595.506 476.949 595.821 476.583 596.225 476.32C596.631 476.055 597.105 475.922 597.646 475.922C598.068 475.922 598.449 476 598.787 476.156C599.126 476.312 599.403 476.531 599.619 476.812C599.835 477.094 599.969 477.422 600.021 477.797H599.1C599.029 477.523 598.873 477.281 598.631 477.07C598.391 476.857 598.068 476.75 597.662 476.75C597.303 476.75 596.988 476.844 596.717 477.031C596.449 477.216 596.239 477.478 596.088 477.816C595.939 478.152 595.865 478.547 595.865 479C595.865 479.464 595.938 479.867 596.084 480.211C596.232 480.555 596.441 480.822 596.709 481.012C596.98 481.202 597.298 481.297 597.662 481.297C597.902 481.297 598.119 481.255 598.314 481.172C598.51 481.089 598.675 480.969 598.811 480.812C598.946 480.656 599.042 480.469 599.1 480.25H600.021C599.969 480.604 599.84 480.923 599.635 481.207C599.432 481.488 599.162 481.712 598.826 481.879C598.493 482.043 598.105 482.125 597.662 482.125ZM606.744 474H607.713V479.297C607.713 479.844 607.584 480.332 607.326 480.762C607.071 481.189 606.71 481.526 606.244 481.773C605.778 482.018 605.231 482.141 604.604 482.141C603.976 482.141 603.429 482.018 602.963 481.773C602.497 481.526 602.135 481.189 601.877 480.762C601.622 480.332 601.494 479.844 601.494 479.297V474H602.463V479.219C602.463 479.609 602.549 479.957 602.721 480.262C602.893 480.564 603.137 480.802 603.455 480.977C603.775 481.148 604.158 481.234 604.604 481.234C605.049 481.234 605.432 481.148 605.752 480.977C606.072 480.802 606.317 480.564 606.486 480.262C606.658 479.957 606.744 479.609 606.744 479.219V474ZM609.522 484.25V476H610.413V476.953H610.522C610.59 476.849 610.684 476.716 610.804 476.555C610.926 476.391 611.101 476.245 611.327 476.117C611.556 475.987 611.866 475.922 612.257 475.922C612.762 475.922 613.207 476.048 613.593 476.301C613.978 476.553 614.279 476.911 614.495 477.375C614.711 477.839 614.819 478.385 614.819 479.016C614.819 479.651 614.711 480.202 614.495 480.668C614.279 481.132 613.979 481.491 613.597 481.746C613.214 481.999 612.772 482.125 612.272 482.125C611.887 482.125 611.578 482.061 611.347 481.934C611.115 481.803 610.937 481.656 610.812 481.492C610.687 481.326 610.59 481.187 610.522 481.078H610.444V484.25H609.522ZM610.429 479C610.429 479.453 610.495 479.853 610.628 480.199C610.761 480.543 610.955 480.812 611.21 481.008C611.465 481.201 611.778 481.297 612.147 481.297C612.533 481.297 612.854 481.195 613.112 480.992C613.373 480.786 613.568 480.51 613.698 480.164C613.831 479.815 613.897 479.427 613.897 479C613.897 478.578 613.832 478.198 613.702 477.859C613.575 477.518 613.381 477.249 613.12 477.051C612.862 476.85 612.538 476.75 612.147 476.75C611.772 476.75 611.457 476.845 611.202 477.035C610.947 477.223 610.754 477.486 610.624 477.824C610.494 478.16 610.429 478.552 610.429 479ZM617.147 474V482H616.226V474H617.147ZM621.273 482.125C620.732 482.125 620.257 481.996 619.848 481.738C619.441 481.48 619.124 481.12 618.895 480.656C618.668 480.193 618.555 479.651 618.555 479.031C618.555 478.406 618.668 477.861 618.895 477.395C619.124 476.928 619.441 476.566 619.848 476.309C620.257 476.051 620.732 475.922 621.273 475.922C621.815 475.922 622.289 476.051 622.695 476.309C623.104 476.566 623.422 476.928 623.648 477.395C623.878 477.861 623.992 478.406 623.992 479.031C623.992 479.651 623.878 480.193 623.648 480.656C623.422 481.12 623.104 481.48 622.695 481.738C622.289 481.996 621.815 482.125 621.273 482.125ZM621.273 481.297C621.685 481.297 622.023 481.191 622.289 480.98C622.555 480.77 622.751 480.492 622.879 480.148C623.007 479.805 623.07 479.432 623.07 479.031C623.07 478.63 623.007 478.257 622.879 477.91C622.751 477.564 622.555 477.284 622.289 477.07C622.023 476.857 621.685 476.75 621.273 476.75C620.862 476.75 620.523 476.857 620.258 477.07C619.992 477.284 619.796 477.564 619.668 477.91C619.54 478.257 619.477 478.63 619.477 479.031C619.477 479.432 619.54 479.805 619.668 480.148C619.796 480.492 619.992 480.77 620.258 480.98C620.523 481.191 620.862 481.297 621.273 481.297ZM627.165 482.141C626.785 482.141 626.44 482.069 626.13 481.926C625.82 481.78 625.574 481.57 625.392 481.297C625.209 481.021 625.118 480.687 625.118 480.297C625.118 479.953 625.186 479.674 625.321 479.461C625.457 479.245 625.638 479.076 625.864 478.953C626.091 478.831 626.341 478.74 626.614 478.68C626.89 478.617 627.168 478.568 627.446 478.531C627.811 478.484 628.106 478.449 628.333 478.426C628.562 478.4 628.729 478.357 628.833 478.297C628.94 478.237 628.993 478.133 628.993 477.984V477.953C628.993 477.568 628.888 477.268 628.677 477.055C628.468 476.841 628.152 476.734 627.728 476.734C627.287 476.734 626.942 476.831 626.692 477.023C626.442 477.216 626.267 477.422 626.165 477.641L625.29 477.328C625.446 476.964 625.655 476.68 625.915 476.477C626.178 476.271 626.465 476.128 626.774 476.047C627.087 475.964 627.394 475.922 627.696 475.922C627.889 475.922 628.11 475.945 628.36 475.992C628.613 476.036 628.856 476.129 629.091 476.27C629.328 476.41 629.524 476.622 629.681 476.906C629.837 477.19 629.915 477.57 629.915 478.047V482H628.993V481.187H628.946C628.884 481.318 628.78 481.457 628.634 481.605C628.488 481.754 628.294 481.88 628.052 481.984C627.81 482.089 627.514 482.141 627.165 482.141ZM627.306 481.312C627.67 481.312 627.978 481.241 628.228 481.098C628.48 480.954 628.67 480.77 628.798 480.543C628.928 480.316 628.993 480.078 628.993 479.828V478.984C628.954 479.031 628.868 479.074 628.735 479.113C628.605 479.15 628.454 479.182 628.282 479.211C628.113 479.237 627.948 479.26 627.786 479.281C627.627 479.299 627.498 479.315 627.399 479.328C627.16 479.359 626.936 479.41 626.728 479.48C626.522 479.548 626.355 479.651 626.228 479.789C626.103 479.924 626.04 480.109 626.04 480.344C626.04 480.664 626.159 480.906 626.396 481.07C626.635 481.232 626.938 481.312 627.306 481.312ZM633.863 482.125C633.363 482.125 632.922 481.999 632.539 481.746C632.156 481.491 631.857 481.132 631.641 480.668C631.424 480.202 631.316 479.651 631.316 479.016C631.316 478.385 631.424 477.839 631.641 477.375C631.857 476.911 632.158 476.553 632.543 476.301C632.928 476.048 633.374 475.922 633.879 475.922C634.27 475.922 634.578 475.987 634.805 476.117C635.034 476.245 635.208 476.391 635.328 476.555C635.451 476.716 635.546 476.849 635.613 476.953H635.691V474H636.613V482H635.723V481.078H635.613C635.546 481.187 635.449 481.326 635.324 481.492C635.199 481.656 635.021 481.803 634.789 481.934C634.557 482.061 634.249 482.125 633.863 482.125ZM633.988 481.297C634.358 481.297 634.671 481.201 634.926 481.008C635.181 480.812 635.375 480.543 635.508 480.199C635.641 479.853 635.707 479.453 635.707 479C635.707 478.552 635.642 478.16 635.512 477.824C635.382 477.486 635.189 477.223 634.934 477.035C634.678 476.845 634.363 476.75 633.988 476.75C633.598 476.75 633.272 476.85 633.012 477.051C632.754 477.249 632.56 477.518 632.43 477.859C632.302 478.198 632.238 478.578 632.238 479C632.238 479.427 632.303 479.815 632.434 480.164C632.566 480.51 632.762 480.786 633.02 480.992C633.28 481.195 633.603 481.297 633.988 481.297Z" fill="black"/>
<g filter="url(#filter0_d_1_25)">
<rect x="110" y="189" width="161" height="101" rx="16" fill="#D9D9D9"/>
<rect x="110.5" y="189.5" width="160" height="100" rx="15.5" stroke="black"/>
</g>
<path d="M129.869 240.383H127.691C127.651 240.101 127.57 239.851 127.447 239.632C127.325 239.41 127.167 239.221 126.975 239.065C126.783 238.91 126.561 238.79 126.309 238.707C126.06 238.625 125.79 238.583 125.499 238.583C124.972 238.583 124.513 238.714 124.121 238.976C123.73 239.234 123.427 239.612 123.212 240.109C122.996 240.603 122.888 241.203 122.888 241.909C122.888 242.635 122.996 243.245 123.212 243.739C123.43 244.232 123.735 244.605 124.126 244.857C124.518 245.109 124.97 245.235 125.484 245.235C125.772 245.235 126.039 245.197 126.284 245.121C126.533 245.045 126.753 244.933 126.945 244.788C127.138 244.638 127.297 244.458 127.423 244.246C127.552 244.034 127.641 243.792 127.691 243.52L129.869 243.53C129.812 243.997 129.671 244.448 129.446 244.882C129.224 245.313 128.924 245.699 128.546 246.04C128.172 246.379 127.724 246.647 127.204 246.846C126.687 247.041 126.102 247.139 125.449 247.139C124.541 247.139 123.729 246.934 123.013 246.523C122.3 246.112 121.737 245.517 121.322 244.738C120.911 243.959 120.706 243.016 120.706 241.909C120.706 240.799 120.915 239.854 121.332 239.075C121.75 238.296 122.317 237.703 123.033 237.295C123.749 236.884 124.554 236.679 125.449 236.679C126.039 236.679 126.586 236.762 127.089 236.928C127.597 237.093 128.046 237.335 128.437 237.653C128.828 237.968 129.146 238.354 129.391 238.812C129.64 239.269 129.799 239.793 129.869 240.383ZM134.823 247.149C134.051 247.149 133.383 246.985 132.819 246.657C132.259 246.326 131.827 245.865 131.522 245.275C131.217 244.682 131.064 243.994 131.064 243.212C131.064 242.423 131.217 241.733 131.522 241.143C131.827 240.55 132.259 240.089 132.819 239.761C133.383 239.43 134.051 239.264 134.823 239.264C135.595 239.264 136.261 239.43 136.821 239.761C137.385 240.089 137.819 240.55 138.124 241.143C138.429 241.733 138.581 242.423 138.581 243.212C138.581 243.994 138.429 244.682 138.124 245.275C137.819 245.865 137.385 246.326 136.821 246.657C136.261 246.985 135.595 247.149 134.823 247.149ZM134.833 245.509C135.184 245.509 135.477 245.409 135.713 245.21C135.948 245.008 136.125 244.733 136.245 244.385C136.367 244.037 136.429 243.641 136.429 243.197C136.429 242.753 136.367 242.357 136.245 242.009C136.125 241.661 135.948 241.385 135.713 241.183C135.477 240.981 135.184 240.88 134.833 240.88C134.478 240.88 134.18 240.981 133.938 241.183C133.699 241.385 133.519 241.661 133.396 242.009C133.277 242.357 133.217 242.753 133.217 243.197C133.217 243.641 133.277 244.037 133.396 244.385C133.519 244.733 133.699 245.008 133.938 245.21C134.18 245.409 134.478 245.509 134.833 245.509ZM139.958 247V239.364H141.977V240.711H142.066C142.225 240.263 142.491 239.911 142.862 239.652C143.233 239.393 143.677 239.264 144.194 239.264C144.718 239.264 145.164 239.395 145.532 239.657C145.9 239.915 146.145 240.267 146.267 240.711H146.347C146.503 240.273 146.784 239.924 147.192 239.662C147.603 239.397 148.089 239.264 148.649 239.264C149.361 239.264 149.94 239.491 150.384 239.945C150.831 240.396 151.055 241.036 151.055 241.864V247H148.942V242.282C148.942 241.858 148.829 241.54 148.604 241.327C148.379 241.115 148.097 241.009 147.759 241.009C147.374 241.009 147.074 241.132 146.859 241.377C146.644 241.619 146.536 241.939 146.536 242.337V247H144.483V242.237C144.483 241.863 144.375 241.564 144.159 241.342C143.947 241.12 143.667 241.009 143.319 241.009C143.084 241.009 142.872 241.069 142.683 241.188C142.497 241.304 142.35 241.468 142.24 241.68C142.131 241.889 142.076 242.134 142.076 242.416V247H139.958ZM152.728 247V239.364H154.746V240.711H154.836C154.995 240.263 155.26 239.911 155.631 239.652C156.003 239.393 156.447 239.264 156.964 239.264C157.487 239.264 157.933 239.395 158.301 239.657C158.669 239.915 158.914 240.267 159.037 240.711H159.116C159.272 240.273 159.554 239.924 159.962 239.662C160.373 239.397 160.858 239.264 161.418 239.264C162.131 239.264 162.709 239.491 163.153 239.945C163.601 240.396 163.825 241.036 163.825 241.864V247H161.712V242.282C161.712 241.858 161.599 241.54 161.374 241.327C161.148 241.115 160.866 241.009 160.528 241.009C160.144 241.009 159.844 241.132 159.629 241.377C159.413 241.619 159.305 241.939 159.305 242.337V247H157.252V242.237C157.252 241.863 157.144 241.564 156.929 241.342C156.717 241.12 156.437 241.009 156.089 241.009C155.853 241.009 155.641 241.069 155.452 241.188C155.267 241.304 155.119 241.468 155.01 241.68C154.901 241.889 154.846 242.134 154.846 242.416V247H152.728ZM168.948 247.149C168.176 247.149 167.508 246.985 166.944 246.657C166.384 246.326 165.952 245.865 165.647 245.275C165.342 244.682 165.189 243.994 165.189 243.212C165.189 242.423 165.342 241.733 165.647 241.143C165.952 240.55 166.384 240.089 166.944 239.761C167.508 239.43 168.176 239.264 168.948 239.264C169.72 239.264 170.386 239.43 170.946 239.761C171.51 240.089 171.944 240.55 172.249 241.143C172.554 241.733 172.706 242.423 172.706 243.212C172.706 243.994 172.554 244.682 172.249 245.275C171.944 245.865 171.51 246.326 170.946 246.657C170.386 246.985 169.72 247.149 168.948 247.149ZM168.958 245.509C169.309 245.509 169.602 245.409 169.838 245.21C170.073 245.008 170.25 244.733 170.37 244.385C170.492 244.037 170.554 243.641 170.554 243.197C170.554 242.753 170.492 242.357 170.37 242.009C170.25 241.661 170.073 241.385 169.838 241.183C169.602 240.981 169.309 240.88 168.958 240.88C168.603 240.88 168.305 240.981 168.063 241.183C167.824 241.385 167.644 241.661 167.521 242.009C167.402 242.357 167.342 242.753 167.342 243.197C167.342 243.641 167.402 244.037 167.521 244.385C167.644 244.733 167.824 245.008 168.063 245.21C168.305 245.409 168.603 245.509 168.958 245.509ZM176.201 242.585V247H174.083V239.364H176.102V240.711H176.191C176.36 240.267 176.644 239.915 177.042 239.657C177.439 239.395 177.922 239.264 178.488 239.264C179.019 239.264 179.481 239.38 179.875 239.612C180.27 239.844 180.576 240.176 180.795 240.607C181.014 241.034 181.123 241.545 181.123 242.138V247H179.005V242.516C179.009 242.048 178.889 241.684 178.647 241.422C178.405 241.157 178.072 241.024 177.648 241.024C177.363 241.024 177.111 241.085 176.892 241.208C176.677 241.331 176.508 241.51 176.385 241.745C176.266 241.977 176.205 242.257 176.201 242.585ZM184.587 247H182.28L185.795 236.818H188.569L192.079 247H189.773L187.222 239.145H187.143L184.587 247ZM184.443 242.998H189.892V244.678H184.443V242.998ZM196.36 247.149C195.578 247.149 194.905 246.983 194.341 246.652C193.781 246.317 193.35 245.853 193.049 245.26C192.751 244.667 192.601 243.984 192.601 243.212C192.601 242.429 192.752 241.743 193.054 241.153C193.359 240.56 193.791 240.098 194.351 239.766C194.912 239.432 195.578 239.264 196.35 239.264C197.016 239.264 197.599 239.385 198.1 239.627C198.6 239.869 198.997 240.209 199.288 240.646C199.58 241.084 199.741 241.598 199.77 242.188H197.772C197.715 241.806 197.566 241.5 197.324 241.268C197.086 241.032 196.773 240.915 196.385 240.915C196.057 240.915 195.77 241.004 195.525 241.183C195.283 241.359 195.094 241.616 194.958 241.954C194.822 242.292 194.754 242.701 194.754 243.182C194.754 243.669 194.82 244.083 194.953 244.425C195.089 244.766 195.279 245.026 195.525 245.205C195.77 245.384 196.057 245.474 196.385 245.474C196.627 245.474 196.844 245.424 197.036 245.325C197.232 245.225 197.392 245.081 197.518 244.892C197.648 244.7 197.732 244.469 197.772 244.201H199.77C199.737 244.784 199.578 245.298 199.293 245.742C199.011 246.183 198.622 246.528 198.125 246.776C197.628 247.025 197.039 247.149 196.36 247.149ZM205.188 239.364V240.955H200.589V239.364H205.188ZM201.634 237.534H203.751V244.653C203.751 244.849 203.781 245.001 203.841 245.111C203.901 245.217 203.983 245.291 204.089 245.335C204.199 245.378 204.325 245.399 204.467 245.399C204.567 245.399 204.666 245.391 204.766 245.374C204.865 245.354 204.941 245.339 204.994 245.33L205.327 246.906C205.221 246.939 205.072 246.977 204.88 247.02C204.688 247.066 204.454 247.094 204.179 247.104C203.669 247.124 203.221 247.056 202.837 246.901C202.455 246.745 202.159 246.503 201.947 246.175C201.735 245.847 201.63 245.432 201.634 244.932V237.534ZM206.568 247V239.364H208.686V247H206.568ZM207.632 238.379C207.317 238.379 207.047 238.275 206.821 238.066C206.599 237.854 206.488 237.6 206.488 237.305C206.488 237.014 206.599 236.763 206.821 236.555C207.047 236.343 207.317 236.237 207.632 236.237C207.947 236.237 208.215 236.343 208.437 236.555C208.663 236.763 208.775 237.014 208.775 237.305C208.775 237.6 208.663 237.854 208.437 238.066C208.215 238.275 207.947 238.379 207.632 238.379ZM213.833 247.149C213.06 247.149 212.392 246.985 211.829 246.657C211.269 246.326 210.836 245.865 210.531 245.275C210.227 244.682 210.074 243.994 210.074 243.212C210.074 242.423 210.227 241.733 210.531 241.143C210.836 240.55 211.269 240.089 211.829 239.761C212.392 239.43 213.06 239.264 213.833 239.264C214.605 239.264 215.271 239.43 215.831 239.761C216.395 240.089 216.829 240.55 217.134 241.143C217.439 241.733 217.591 242.423 217.591 243.212C217.591 243.994 217.439 244.682 217.134 245.275C216.829 245.865 216.395 246.326 215.831 246.657C215.271 246.985 214.605 247.149 213.833 247.149ZM213.843 245.509C214.194 245.509 214.487 245.409 214.722 245.21C214.958 245.008 215.135 244.733 215.254 244.385C215.377 244.037 215.438 243.641 215.438 243.197C215.438 242.753 215.377 242.357 215.254 242.009C215.135 241.661 214.958 241.385 214.722 241.183C214.487 240.981 214.194 240.88 213.843 240.88C213.488 240.88 213.19 240.981 212.948 241.183C212.709 241.385 212.528 241.661 212.406 242.009C212.286 242.357 212.227 242.753 212.227 243.197C212.227 243.641 212.286 244.037 212.406 244.385C212.528 244.733 212.709 245.008 212.948 245.21C213.19 245.409 213.488 245.509 213.843 245.509ZM221.086 242.585V247H218.968V239.364H220.987V240.711H221.076C221.245 240.267 221.529 239.915 221.926 239.657C222.324 239.395 222.806 239.264 223.373 239.264C223.903 239.264 224.366 239.38 224.76 239.612C225.155 239.844 225.461 240.176 225.68 240.607C225.899 241.034 226.008 241.545 226.008 242.138V247H223.89V242.516C223.893 242.048 223.774 241.684 223.532 241.422C223.29 241.157 222.957 241.024 222.533 241.024C222.248 241.024 221.996 241.085 221.777 241.208C221.562 241.331 221.393 241.51 221.27 241.745C221.151 241.977 221.089 242.257 221.086 242.585ZM227.677 249.864V239.364H229.765V240.646H229.86C229.953 240.441 230.087 240.232 230.262 240.02C230.441 239.804 230.673 239.625 230.958 239.483C231.247 239.337 231.605 239.264 232.032 239.264C232.589 239.264 233.103 239.41 233.574 239.702C234.044 239.99 234.42 240.426 234.702 241.009C234.984 241.589 235.125 242.317 235.125 243.192C235.125 244.044 234.987 244.763 234.712 245.349C234.44 245.933 234.069 246.375 233.598 246.677C233.131 246.975 232.607 247.124 232.027 247.124C231.616 247.124 231.267 247.056 230.978 246.92C230.693 246.785 230.46 246.614 230.277 246.408C230.095 246.2 229.956 245.989 229.86 245.777H229.795V249.864H227.677ZM229.75 243.182C229.75 243.636 229.813 244.032 229.939 244.37C230.065 244.708 230.248 244.972 230.486 245.161C230.725 245.346 231.015 245.439 231.356 245.439C231.701 245.439 231.993 245.344 232.231 245.156C232.47 244.963 232.65 244.698 232.773 244.36C232.899 244.019 232.962 243.626 232.962 243.182C232.962 242.741 232.901 242.353 232.778 242.018C232.655 241.684 232.475 241.422 232.236 241.233C231.998 241.044 231.704 240.95 231.356 240.95C231.011 240.95 230.72 241.041 230.481 241.223C230.246 241.405 230.065 241.664 229.939 241.999C229.813 242.333 229.75 242.728 229.75 243.182ZM239.987 247.149C239.215 247.149 238.547 246.985 237.983 246.657C237.423 246.326 236.991 245.865 236.686 245.275C236.381 244.682 236.228 243.994 236.228 243.212C236.228 242.423 236.381 241.733 236.686 241.143C236.991 240.55 237.423 240.089 237.983 239.761C238.547 239.43 239.215 239.264 239.987 239.264C240.759 239.264 241.425 239.43 241.985 239.761C242.549 240.089 242.983 240.55 243.288 241.143C243.593 241.733 243.745 242.423 243.745 243.212C243.745 243.994 243.593 244.682 243.288 245.275C242.983 245.865 242.549 246.326 241.985 246.657C241.425 246.985 240.759 247.149 239.987 247.149ZM239.997 245.509C240.348 245.509 240.641 245.409 240.877 245.21C241.112 245.008 241.289 244.733 241.409 244.385C241.531 244.037 241.593 243.641 241.593 243.197C241.593 242.753 241.531 242.357 241.409 242.009C241.289 241.661 241.112 241.385 240.877 241.183C240.641 240.981 240.348 240.88 239.997 240.88C239.642 240.88 239.344 240.981 239.102 241.183C238.863 241.385 238.683 241.661 238.56 242.009C238.441 242.357 238.381 242.753 238.381 243.197C238.381 243.641 238.441 244.037 238.56 244.385C238.683 244.733 238.863 245.008 239.102 245.21C239.344 245.409 239.642 245.509 239.997 245.509ZM245.123 247V239.364H247.24V247H245.123ZM246.186 238.379C245.872 238.379 245.601 238.275 245.376 238.066C245.154 237.854 245.043 237.6 245.043 237.305C245.043 237.014 245.154 236.763 245.376 236.555C245.601 236.343 245.872 236.237 246.186 236.237C246.501 236.237 246.77 236.343 246.992 236.555C247.217 236.763 247.33 237.014 247.33 237.305C247.33 237.6 247.217 237.854 246.992 238.066C246.77 238.275 246.501 238.379 246.186 238.379ZM251.055 242.585V247H248.937V239.364H250.955V240.711H251.045C251.214 240.267 251.497 239.915 251.895 239.657C252.293 239.395 252.775 239.264 253.342 239.264C253.872 239.264 254.334 239.38 254.729 239.612C255.123 239.844 255.43 240.176 255.649 240.607C255.867 241.034 255.977 241.545 255.977 242.138V247H253.859V242.516C253.862 242.048 253.743 241.684 253.501 241.422C253.259 241.157 252.926 241.024 252.502 241.024C252.217 241.024 251.965 241.085 251.746 241.208C251.53 241.331 251.361 241.51 251.239 241.745C251.119 241.977 251.058 242.257 251.055 242.585ZM261.708 239.364V240.955H257.109V239.364H261.708ZM258.153 237.534H260.271V244.653C260.271 244.849 260.301 245.001 260.36 245.111C260.42 245.217 260.503 245.291 260.609 245.335C260.718 245.378 260.844 245.399 260.987 245.399C261.086 245.399 261.186 245.391 261.285 245.374C261.385 245.354 261.461 245.339 261.514 245.33L261.847 246.906C261.741 246.939 261.592 246.977 261.4 247.02C261.207 247.066 260.974 247.094 260.699 247.104C260.188 247.124 259.741 247.056 259.356 246.901C258.975 246.745 258.678 246.503 258.466 246.175C258.254 245.847 258.15 245.432 258.153 244.932V237.534Z" fill="black"/>
<rect x="122" y="480" width="349" height="198" rx="30" fill="#D9D9D9"/>
<g filter="url(#filter1_d_1_25)">
<ellipse cx="402.5" cy="625" rx="38.5" ry="36" fill="#CFBDBD"/>
<path d="M440.5 625C440.5 644.575 423.519 660.5 402.5 660.5C381.481 660.5 364.5 644.575 364.5 625C364.5 605.425 381.481 589.5 402.5 589.5C423.519 589.5 440.5 605.425 440.5 625Z" stroke="black"/>
</g>
<g filter="url(#filter2_d_1_25)">
<ellipse cx="296.5" cy="625" rx="38.5" ry="36" fill="#CFBDBD"/>
<path d="M334.5 625C334.5 644.575 317.519 660.5 296.5 660.5C275.481 660.5 258.5 644.575 258.5 625C258.5 605.425 275.481 589.5 296.5 589.5C317.519 589.5 334.5 605.425 334.5 625Z" stroke="black"/>
</g>
<g filter="url(#filter3_d_1_25)">
<ellipse cx="190.5" cy="625" rx="38.5" ry="36" fill="#CFBDBD"/>
<path d="M228.5 625C228.5 644.575 211.519 660.5 190.5 660.5C169.481 660.5 152.5 644.575 152.5 625C152.5 605.425 169.481 589.5 190.5 589.5C211.519 589.5 228.5 605.425 228.5 625Z" stroke="black"/>
</g>
<path d="M180.057 630V621.273H185.29V622.21H181.114V625.159H184.898V626.097H181.114V630H180.057ZM186.623 622.21V621.273H193.168V622.21H190.424V630H189.367V622.21H186.623ZM194.799 630V621.273H197.748C198.433 621.273 198.992 621.396 199.427 621.643C199.864 621.888 200.188 622.219 200.398 622.636C200.609 623.054 200.714 623.52 200.714 624.034C200.714 624.548 200.609 625.016 200.398 625.436C200.191 625.857 199.87 626.192 199.435 626.442C199.001 626.689 198.444 626.812 197.765 626.812H195.651V625.875H197.731C198.2 625.875 198.576 625.794 198.86 625.632C199.144 625.47 199.35 625.251 199.478 624.976C199.609 624.697 199.674 624.384 199.674 624.034C199.674 623.685 199.609 623.372 199.478 623.097C199.35 622.821 199.143 622.605 198.856 622.449C198.569 622.29 198.188 622.21 197.714 622.21H195.856V630H194.799Z" fill="black"/>
<path d="M286.057 630V621.273H287.114V629.062H291.17V630H286.057ZM299.831 625.636C299.831 626.557 299.664 627.352 299.332 628.023C299 628.693 298.544 629.21 297.964 629.574C297.385 629.938 296.723 630.119 295.978 630.119C295.234 630.119 294.572 629.938 293.993 629.574C293.413 629.21 292.957 628.693 292.625 628.023C292.292 627.352 292.126 626.557 292.126 625.636C292.126 624.716 292.292 623.92 292.625 623.25C292.957 622.58 293.413 622.062 293.993 621.699C294.572 621.335 295.234 621.153 295.978 621.153C296.723 621.153 297.385 621.335 297.964 621.699C298.544 622.062 299 622.58 299.332 623.25C299.664 623.92 299.831 624.716 299.831 625.636ZM298.808 625.636C298.808 624.881 298.681 624.243 298.429 623.723C298.179 623.203 297.839 622.81 297.41 622.543C296.984 622.276 296.507 622.142 295.978 622.142C295.45 622.142 294.971 622.276 294.542 622.543C294.116 622.81 293.777 623.203 293.524 623.723C293.274 624.243 293.149 624.881 293.149 625.636C293.149 626.392 293.274 627.03 293.524 627.55C293.777 628.07 294.116 628.463 294.542 628.73C294.971 628.997 295.45 629.131 295.978 629.131C296.507 629.131 296.984 628.997 297.41 628.73C297.839 628.463 298.179 628.07 298.429 627.55C298.681 627.03 298.808 626.392 298.808 625.636ZM308.63 624H307.574C307.511 623.696 307.402 623.429 307.245 623.199C307.092 622.969 306.904 622.776 306.683 622.619C306.464 622.46 306.221 622.341 305.954 622.261C305.687 622.182 305.409 622.142 305.119 622.142C304.591 622.142 304.112 622.276 303.683 622.543C303.257 622.81 302.917 623.203 302.664 623.723C302.414 624.243 302.289 624.881 302.289 625.636C302.289 626.392 302.414 627.03 302.664 627.55C302.917 628.07 303.257 628.463 303.683 628.73C304.112 628.997 304.591 629.131 305.119 629.131C305.409 629.131 305.687 629.091 305.954 629.011C306.221 628.932 306.464 628.814 306.683 628.658C306.904 628.499 307.092 628.304 307.245 628.074C307.402 627.841 307.511 627.574 307.574 627.273H308.63C308.551 627.719 308.406 628.118 308.196 628.47C307.985 628.822 307.724 629.122 307.412 629.369C307.099 629.614 306.748 629.8 306.359 629.928C305.973 630.055 305.559 630.119 305.119 630.119C304.375 630.119 303.713 629.938 303.133 629.574C302.554 629.21 302.098 628.693 301.765 628.023C301.433 627.352 301.267 626.557 301.267 625.636C301.267 624.716 301.433 623.92 301.765 623.25C302.098 622.58 302.554 622.062 303.133 621.699C303.713 621.335 304.375 621.153 305.119 621.153C305.559 621.153 305.973 621.217 306.359 621.345C306.748 621.473 307.099 621.661 307.412 621.908C307.724 622.152 307.985 622.45 308.196 622.803C308.406 623.152 308.551 623.551 308.63 624Z" fill="black"/>
<path d="M391.057 630V621.273H394.108C394.716 621.273 395.217 621.378 395.612 621.588C396.007 621.795 396.301 622.075 396.494 622.428C396.688 622.777 396.784 623.165 396.784 623.591C396.784 623.966 396.717 624.276 396.584 624.52C396.453 624.764 396.28 624.957 396.064 625.099C395.851 625.241 395.619 625.347 395.369 625.415V625.5C395.636 625.517 395.905 625.611 396.175 625.781C396.445 625.952 396.67 626.196 396.852 626.514C397.034 626.832 397.125 627.222 397.125 627.682C397.125 628.119 397.026 628.513 396.827 628.862C396.628 629.212 396.314 629.489 395.885 629.693C395.456 629.898 394.898 630 394.21 630H391.057ZM392.114 629.062H394.21C394.901 629.062 395.391 628.929 395.68 628.662C395.973 628.392 396.119 628.065 396.119 627.682C396.119 627.386 396.044 627.114 395.893 626.864C395.743 626.611 395.528 626.409 395.25 626.259C394.972 626.105 394.642 626.028 394.261 626.028H392.114V629.062ZM392.114 625.108H394.074C394.392 625.108 394.679 625.045 394.935 624.92C395.193 624.795 395.398 624.619 395.548 624.392C395.702 624.165 395.778 623.898 395.778 623.591C395.778 623.207 395.645 622.882 395.378 622.615C395.111 622.345 394.688 622.21 394.108 622.21H392.114V625.108ZM398.862 630V621.273H399.918V629.062H403.975V630H398.862ZM412.635 625.636C412.635 626.557 412.469 627.352 412.137 628.023C411.804 628.693 411.348 629.21 410.769 629.574C410.189 629.938 409.527 630.119 408.783 630.119C408.039 630.119 407.377 629.938 406.797 629.574C406.218 629.21 405.762 628.693 405.429 628.023C405.097 627.352 404.931 626.557 404.931 625.636C404.931 624.716 405.097 623.92 405.429 623.25C405.762 622.58 406.218 622.062 406.797 621.699C407.377 621.335 408.039 621.153 408.783 621.153C409.527 621.153 410.189 621.335 410.769 621.699C411.348 622.062 411.804 622.58 412.137 623.25C412.469 623.92 412.635 624.716 412.635 625.636ZM411.613 625.636C411.613 624.881 411.486 624.243 411.233 623.723C410.983 623.203 410.644 622.81 410.215 622.543C409.789 622.276 409.311 622.142 408.783 622.142C408.255 622.142 407.776 622.276 407.347 622.543C406.921 622.81 406.581 623.203 406.328 623.723C406.078 624.243 405.953 624.881 405.953 625.636C405.953 626.392 406.078 627.03 406.328 627.55C406.581 628.07 406.921 628.463 407.347 628.73C407.776 628.997 408.255 629.131 408.783 629.131C409.311 629.131 409.789 628.997 410.215 628.73C410.644 628.463 410.983 628.07 411.233 627.55C411.486 627.03 411.613 626.392 411.613 625.636ZM414.412 630V621.273H417.463C418.071 621.273 418.573 621.378 418.968 621.588C419.363 621.795 419.657 622.075 419.85 622.428C420.043 622.777 420.14 623.165 420.14 623.591C420.14 623.966 420.073 624.276 419.939 624.52C419.809 624.764 419.635 624.957 419.419 625.099C419.206 625.241 418.975 625.347 418.725 625.415V625.5C418.992 625.517 419.26 625.611 419.53 625.781C419.8 625.952 420.026 626.196 420.208 626.514C420.39 626.832 420.48 627.222 420.48 627.682C420.48 628.119 420.381 628.513 420.182 628.862C419.983 629.212 419.669 629.489 419.24 629.693C418.811 629.898 418.253 630 417.566 630H414.412ZM415.469 629.062H417.566C418.256 629.062 418.746 628.929 419.036 628.662C419.328 628.392 419.475 628.065 419.475 627.682C419.475 627.386 419.4 627.114 419.249 626.864C419.098 626.611 418.884 626.409 418.605 626.259C418.327 626.105 417.998 626.028 417.617 626.028H415.469V629.062ZM415.469 625.108H417.429C417.748 625.108 418.034 625.045 418.29 624.92C418.549 624.795 418.753 624.619 418.904 624.392C419.057 624.165 419.134 623.898 419.134 623.591C419.134 623.207 419 622.882 418.733 622.615C418.466 622.345 418.043 622.21 417.463 622.21H415.469V625.108Z" fill="black"/>
<g filter="url(#filter4_d_1_25)">
<path d="M201.641 512.091V531H197.643V512.091H201.641ZM204.857 531V516.818H208.605V519.32H208.771C209.067 518.489 209.559 517.834 210.249 517.354C210.938 516.874 211.763 516.634 212.723 516.634C213.696 516.634 214.524 516.877 215.207 517.363C215.89 517.843 216.346 518.496 216.573 519.32H216.721C217.01 518.508 217.534 517.858 218.291 517.372C219.054 516.88 219.956 516.634 220.996 516.634C222.319 516.634 223.393 517.055 224.218 517.898C225.049 518.736 225.465 519.924 225.465 521.462V531H221.541V522.238C221.541 521.45 221.331 520.859 220.913 520.465C220.494 520.071 219.971 519.874 219.343 519.874C218.629 519.874 218.072 520.102 217.672 520.558C217.272 521.007 217.072 521.601 217.072 522.339V531H213.259V522.155C213.259 521.459 213.059 520.905 212.659 520.493C212.265 520.08 211.744 519.874 211.098 519.874C210.661 519.874 210.267 519.985 209.916 520.207C209.572 520.422 209.298 520.727 209.095 521.121C208.892 521.509 208.79 521.964 208.79 522.487V531H204.857ZM228.572 536.318V516.818H232.449V519.2H232.625C232.797 518.819 233.046 518.431 233.373 518.037C233.705 517.637 234.136 517.304 234.665 517.04C235.201 516.769 235.866 516.634 236.66 516.634C237.694 516.634 238.648 516.904 239.522 517.446C240.396 517.982 241.095 518.791 241.618 519.874C242.141 520.951 242.403 522.303 242.403 523.928C242.403 525.509 242.147 526.845 241.636 527.935C241.131 529.018 240.442 529.84 239.568 530.4C238.7 530.954 237.728 531.231 236.65 531.231C235.887 531.231 235.238 531.105 234.702 530.852C234.173 530.6 233.739 530.283 233.4 529.901C233.062 529.513 232.803 529.123 232.625 528.729H232.505V536.318H228.572ZM232.422 523.909C232.422 524.752 232.539 525.488 232.773 526.116C233.006 526.744 233.345 527.233 233.788 527.584C234.231 527.929 234.77 528.101 235.404 528.101C236.044 528.101 236.586 527.925 237.029 527.575C237.472 527.218 237.808 526.725 238.035 526.097C238.269 525.463 238.386 524.734 238.386 523.909C238.386 523.09 238.272 522.37 238.045 521.749C237.817 521.127 237.481 520.641 237.038 520.29C236.595 519.939 236.05 519.763 235.404 519.763C234.764 519.763 234.222 519.933 233.779 520.271C233.342 520.61 233.006 521.09 232.773 521.712C232.539 522.333 232.422 523.066 232.422 523.909ZM248.958 512.091V531H245.025V512.091H248.958ZM258.572 531.277C257.113 531.277 255.857 530.982 254.805 530.391C253.758 529.794 252.952 528.95 252.386 527.861C251.819 526.765 251.536 525.469 251.536 523.974C251.536 522.515 251.819 521.235 252.386 520.133C252.952 519.031 253.749 518.172 254.777 517.557C255.811 516.941 257.024 516.634 258.415 516.634C259.35 516.634 260.221 516.784 261.028 517.086C261.84 517.381 262.548 517.828 263.151 518.425C263.761 519.022 264.235 519.773 264.573 520.678C264.912 521.576 265.081 522.629 265.081 523.835V524.915H253.106V522.478H261.379C261.379 521.912 261.255 521.41 261.009 520.973C260.763 520.536 260.421 520.194 259.984 519.948C259.554 519.696 259.052 519.57 258.479 519.57C257.882 519.57 257.353 519.708 256.891 519.985C256.436 520.256 256.079 520.622 255.82 521.084C255.562 521.539 255.429 522.047 255.423 522.607V524.925C255.423 525.626 255.553 526.233 255.811 526.744C256.076 527.254 256.448 527.648 256.928 527.925C257.408 528.202 257.978 528.341 258.636 528.341C259.073 528.341 259.473 528.279 259.837 528.156C260.2 528.033 260.511 527.848 260.769 527.602C261.028 527.356 261.225 527.054 261.36 526.697L264.998 526.938C264.813 527.812 264.435 528.575 263.862 529.227C263.296 529.874 262.563 530.378 261.665 530.741C260.772 531.098 259.741 531.277 258.572 531.277ZM267.648 531V516.818H271.396V519.32H271.562C271.858 518.489 272.35 517.834 273.04 517.354C273.729 516.874 274.554 516.634 275.514 516.634C276.487 516.634 277.315 516.877 277.998 517.363C278.681 517.843 279.137 518.496 279.364 519.32H279.512C279.801 518.508 280.325 517.858 281.082 517.372C281.845 516.88 282.747 516.634 283.787 516.634C285.11 516.634 286.184 517.055 287.009 517.898C287.84 518.736 288.256 519.924 288.256 521.462V531H284.332V522.238C284.332 521.45 284.122 520.859 283.704 520.465C283.285 520.071 282.762 519.874 282.134 519.874C281.42 519.874 280.863 520.102 280.463 520.558C280.063 521.007 279.863 521.601 279.863 522.339V531H276.05V522.155C276.05 521.459 275.85 520.905 275.45 520.493C275.056 520.08 274.536 519.874 273.889 519.874C273.452 519.874 273.058 519.985 272.707 520.207C272.363 520.422 272.089 520.727 271.886 521.121C271.683 521.509 271.581 521.964 271.581 522.487V531H267.648ZM297.826 531.277C296.367 531.277 295.111 530.982 294.059 530.391C293.012 529.794 292.206 528.95 291.64 527.861C291.073 526.765 290.79 525.469 290.79 523.974C290.79 522.515 291.073 521.235 291.64 520.133C292.206 519.031 293.003 518.172 294.031 517.557C295.065 516.941 296.278 516.634 297.669 516.634C298.604 516.634 299.475 516.784 300.282 517.086C301.094 517.381 301.802 517.828 302.405 518.425C303.015 519.022 303.489 519.773 303.827 520.678C304.166 521.576 304.335 522.629 304.335 523.835V524.915H292.36V522.478H300.632C300.632 521.912 300.509 521.41 300.263 520.973C300.017 520.536 299.675 520.194 299.238 519.948C298.807 519.696 298.306 519.57 297.733 519.57C297.136 519.57 296.607 519.708 296.145 519.985C295.69 520.256 295.333 520.622 295.074 521.084C294.816 521.539 294.683 522.047 294.677 522.607V524.925C294.677 525.626 294.806 526.233 295.065 526.744C295.33 527.254 295.702 527.648 296.182 527.925C296.662 528.202 297.232 528.341 297.89 528.341C298.327 528.341 298.727 528.279 299.091 528.156C299.454 528.033 299.765 527.848 300.023 527.602C300.282 527.356 300.479 527.054 300.614 526.697L304.252 526.938C304.067 527.812 303.689 528.575 303.116 529.227C302.55 529.874 301.817 530.378 300.919 530.741C300.026 531.098 298.995 531.277 297.826 531.277ZM310.835 522.801V531H306.902V516.818H310.65V519.32H310.816C311.13 518.496 311.657 517.843 312.395 517.363C313.134 516.877 314.029 516.634 315.082 516.634C316.067 516.634 316.926 516.849 317.658 517.28C318.391 517.711 318.96 518.326 319.366 519.126C319.772 519.92 319.975 520.868 319.975 521.97V531H316.042V522.672C316.048 521.804 315.827 521.127 315.377 520.641C314.928 520.148 314.31 519.902 313.522 519.902C312.992 519.902 312.525 520.016 312.118 520.244C311.718 520.471 311.404 520.804 311.176 521.241C310.955 521.672 310.841 522.192 310.835 522.801ZM330.619 516.818V519.773H322.078V516.818H330.619ZM324.017 513.42H327.95V526.642C327.95 527.005 328.006 527.288 328.117 527.491C328.227 527.688 328.381 527.827 328.578 527.907C328.781 527.987 329.015 528.027 329.28 528.027C329.465 528.027 329.649 528.012 329.834 527.981C330.019 527.944 330.16 527.916 330.259 527.898L330.877 530.825C330.68 530.886 330.403 530.957 330.046 531.037C329.689 531.123 329.255 531.175 328.744 531.194C327.797 531.231 326.966 531.105 326.252 530.815C325.544 530.526 324.993 530.077 324.599 529.467C324.205 528.858 324.011 528.089 324.017 527.159V513.42ZM337.225 531.268C336.32 531.268 335.514 531.111 334.806 530.797C334.098 530.477 333.538 530.006 333.126 529.384C332.719 528.756 332.516 527.975 332.516 527.039C332.516 526.251 332.661 525.589 332.95 525.054C333.239 524.518 333.633 524.088 334.132 523.761C334.631 523.435 335.197 523.189 335.831 523.023C336.471 522.857 337.142 522.74 337.844 522.672C338.668 522.586 339.333 522.506 339.838 522.432C340.343 522.352 340.709 522.235 340.937 522.081C341.164 521.927 341.278 521.699 341.278 521.398V521.342C341.278 520.758 341.094 520.305 340.724 519.985C340.361 519.665 339.844 519.505 339.173 519.505C338.465 519.505 337.902 519.662 337.483 519.976C337.065 520.284 336.788 520.671 336.653 521.139L333.015 520.844C333.199 519.982 333.563 519.237 334.104 518.609C334.646 517.975 335.345 517.489 336.2 517.151C337.062 516.806 338.059 516.634 339.192 516.634C339.979 516.634 340.733 516.726 341.454 516.911C342.18 517.095 342.823 517.381 343.383 517.769C343.95 518.157 344.396 518.656 344.722 519.265C345.048 519.868 345.211 520.591 345.211 521.435V531H341.481V529.033H341.371C341.143 529.477 340.838 529.867 340.456 530.206C340.075 530.538 339.616 530.8 339.081 530.991C338.545 531.175 337.927 531.268 337.225 531.268ZM338.351 528.553C338.93 528.553 339.441 528.439 339.884 528.212C340.327 527.978 340.675 527.664 340.927 527.27C341.18 526.876 341.306 526.43 341.306 525.931V524.426C341.183 524.506 341.014 524.58 340.798 524.648C340.589 524.709 340.352 524.768 340.087 524.823C339.823 524.872 339.558 524.919 339.293 524.962C339.028 524.999 338.788 525.032 338.573 525.063C338.111 525.131 337.708 525.239 337.363 525.386C337.019 525.534 336.751 525.734 336.56 525.987C336.369 526.233 336.274 526.54 336.274 526.91C336.274 527.445 336.468 527.855 336.856 528.138C337.25 528.415 337.748 528.553 338.351 528.553ZM355.806 516.818V519.773H347.266V516.818H355.806ZM349.205 513.42H353.138V526.642C353.138 527.005 353.193 527.288 353.304 527.491C353.415 527.688 353.569 527.827 353.766 527.907C353.969 527.987 354.203 528.027 354.468 528.027C354.652 528.027 354.837 528.012 355.021 527.981C355.206 527.944 355.348 527.916 355.446 527.898L356.065 530.825C355.868 530.886 355.591 530.957 355.234 531.037C354.877 531.123 354.443 531.175 353.932 531.194C352.984 531.231 352.153 531.105 351.439 530.815C350.731 530.526 350.18 530.077 349.786 529.467C349.392 528.858 349.199 528.089 349.205 527.159V513.42ZM358.368 531V516.818H362.302V531H358.368ZM360.344 514.99C359.76 514.99 359.258 514.796 358.839 514.408C358.427 514.014 358.221 513.544 358.221 512.996C358.221 512.454 358.427 511.989 358.839 511.602C359.258 511.208 359.76 511.011 360.344 511.011C360.929 511.011 361.428 511.208 361.84 511.602C362.259 511.989 362.468 512.454 362.468 512.996C362.468 513.544 362.259 514.014 361.84 514.408C361.428 514.796 360.929 514.99 360.344 514.99ZM371.86 531.277C370.426 531.277 369.186 530.972 368.139 530.363C367.099 529.747 366.296 528.892 365.729 527.796C365.163 526.694 364.88 525.417 364.88 523.964C364.88 522.5 365.163 521.219 365.729 520.124C366.296 519.022 367.099 518.166 368.139 517.557C369.186 516.941 370.426 516.634 371.86 516.634C373.294 516.634 374.531 516.941 375.572 517.557C376.618 518.166 377.424 519.022 377.991 520.124C378.557 521.219 378.84 522.5 378.84 523.964C378.84 525.417 378.557 526.694 377.991 527.796C377.424 528.892 376.618 529.747 375.572 530.363C374.531 530.972 373.294 531.277 371.86 531.277ZM371.879 528.23C372.531 528.23 373.076 528.045 373.513 527.676C373.95 527.301 374.279 526.79 374.501 526.143C374.728 525.497 374.842 524.762 374.842 523.937C374.842 523.112 374.728 522.376 374.501 521.73C374.279 521.084 373.95 520.573 373.513 520.197C373.076 519.822 372.531 519.634 371.879 519.634C371.22 519.634 370.666 519.822 370.217 520.197C369.773 520.573 369.438 521.084 369.21 521.73C368.989 522.376 368.878 523.112 368.878 523.937C368.878 524.762 368.989 525.497 369.21 526.143C369.438 526.79 369.773 527.301 370.217 527.676C370.666 528.045 371.22 528.23 371.879 528.23ZM385.331 522.801V531H381.398V516.818H385.146V519.32H385.312C385.626 518.496 386.153 517.843 386.891 517.363C387.63 516.877 388.526 516.634 389.578 516.634C390.563 516.634 391.422 516.849 392.154 517.28C392.887 517.711 393.456 518.326 393.862 519.126C394.268 519.92 394.472 520.868 394.472 521.97V531H390.538V522.672C390.545 521.804 390.323 521.127 389.874 520.641C389.424 520.148 388.806 519.902 388.018 519.902C387.488 519.902 387.021 520.016 386.614 520.244C386.214 520.471 385.9 520.804 385.673 521.241C385.451 521.672 385.337 522.192 385.331 522.801Z" fill="black"/>
</g>
<path d="M595.44 420.434C596.232 420.191 596.677 419.353 596.434 418.561L592.479 405.653C592.236 404.861 591.397 404.416 590.605 404.658C589.813 404.901 589.368 405.74 589.61 406.532L593.126 418.005L581.653 421.521C580.861 421.764 580.416 422.603 580.658 423.395C580.901 424.187 581.74 424.632 582.532 424.39L595.44 420.434ZM270.297 248.325L594.297 420.325L595.703 417.675L271.703 245.675L270.297 248.325Z" fill="black"/>
<path d="M469.553 545.605C469.335 546.405 469.806 547.229 470.605 547.447L483.63 550.999C484.429 551.217 485.253 550.746 485.471 549.947C485.689 549.148 485.218 548.323 484.419 548.105L472.842 544.948L475.999 533.37C476.217 532.571 475.746 531.747 474.947 531.529C474.148 531.311 473.323 531.782 473.105 532.581L469.553 545.605ZM554.256 496.698L470.256 544.698L471.744 547.302L555.744 499.302L554.256 496.698Z" fill="black"/>
<rect width="202" height="96" rx="8" fill="#D9D9D9"/>
<path d="M16.3867 16V24H14.6953V16H16.3867ZM19.4111 20.5313V24H17.7471V18H19.333V19.0586H19.4033C19.5361 18.7096 19.7588 18.4336 20.0713 18.2305C20.3838 18.0247 20.7627 17.9219 21.208 17.9219C21.6247 17.9219 21.988 18.013 22.2979 18.1953C22.6077 18.3776 22.8486 18.638 23.0205 18.9766C23.1924 19.3125 23.2783 19.7135 23.2783 20.1797V24H21.6143V20.4766C21.6169 20.1094 21.5231 19.8229 21.333 19.6172C21.1429 19.4089 20.8812 19.3047 20.5479 19.3047C20.3239 19.3047 20.126 19.3529 19.9541 19.4492C19.7848 19.5456 19.652 19.6862 19.5557 19.8711C19.4619 20.0534 19.4137 20.2734 19.4111 20.5313ZM24.5898 26.25V18H26.2305V19.0078H26.3047C26.3776 18.8464 26.4831 18.6823 26.6211 18.5156C26.7617 18.3464 26.944 18.2057 27.168 18.0938C27.3945 17.9792 27.6758 17.9219 28.0117 17.9219C28.4492 17.9219 28.8529 18.0365 29.2227 18.2656C29.5924 18.4922 29.888 18.8346 30.1094 19.293C30.3307 19.7487 30.4414 20.3203 30.4414 21.0078C30.4414 21.6771 30.3333 22.2422 30.1172 22.7031C29.9036 23.1615 29.612 23.5091 29.2422 23.7461C28.875 23.9805 28.4635 24.0977 28.0078 24.0977C27.6849 24.0977 27.4102 24.0443 27.1836 23.9375C26.9596 23.8307 26.776 23.6966 26.6328 23.5352C26.4896 23.3711 26.3802 23.2057 26.3047 23.0391H26.2539V26.25H24.5898ZM26.2188 21C26.2188 21.3568 26.2682 21.668 26.3672 21.9336C26.4661 22.1992 26.6094 22.4062 26.7969 22.5547C26.9844 22.7005 27.2122 22.7734 27.4805 22.7734C27.7513 22.7734 27.9805 22.6992 28.168 22.5508C28.3555 22.3997 28.4974 22.1914 28.5938 21.9258C28.6927 21.6576 28.7422 21.349 28.7422 21C28.7422 20.6536 28.694 20.349 28.5977 20.0859C28.5013 19.8229 28.3594 19.6172 28.1719 19.4687C27.9844 19.3203 27.7539 19.2461 27.4805 19.2461C27.2096 19.2461 26.9805 19.3177 26.793 19.4609C26.6081 19.6042 26.4661 19.8073 26.3672 20.0703C26.2682 20.3333 26.2188 20.6432 26.2188 21ZM35.3984 21.4453V18H37.0625V24H35.4648V22.9102H35.4023C35.2669 23.2617 35.0417 23.5443 34.7266 23.7578C34.4141 23.9714 34.0326 24.0781 33.582 24.0781C33.181 24.0781 32.8281 23.987 32.5234 23.8047C32.2188 23.6224 31.9805 23.3633 31.8086 23.0273C31.6393 22.6914 31.5534 22.2891 31.5508 21.8203V18H33.2148V21.5234C33.2174 21.8776 33.3125 22.1576 33.5 22.3633C33.6875 22.569 33.9388 22.6719 34.2539 22.6719C34.4544 22.6719 34.6419 22.6263 34.8164 22.5352C34.9909 22.4414 35.1315 22.3034 35.2383 22.1211C35.3477 21.9388 35.401 21.7135 35.3984 21.4453ZM41.585 18V19.25H37.9717V18H41.585ZM38.792 16.5625H40.4561V22.1562C40.4561 22.3099 40.4795 22.4297 40.5264 22.5156C40.5732 22.599 40.6383 22.6576 40.7217 22.6914C40.8076 22.7253 40.9066 22.7422 41.0186 22.7422C41.0967 22.7422 41.1748 22.7357 41.2529 22.7227C41.3311 22.707 41.391 22.6953 41.4326 22.6875L41.6943 23.9258C41.611 23.9518 41.4938 23.9818 41.3428 24.0156C41.1917 24.0521 41.0081 24.0742 40.792 24.082C40.391 24.0977 40.0394 24.0443 39.7373 23.9219C39.4378 23.7995 39.2048 23.6094 39.0381 23.3516C38.8714 23.0937 38.7894 22.7682 38.792 22.375V16.5625ZM43.6416 24.1016C43.3838 24.1016 43.1624 24.0104 42.9775 23.8281C42.7952 23.6432 42.7041 23.4219 42.7041 23.1641C42.7041 22.9089 42.7952 22.6901 42.9775 22.5078C43.1624 22.3255 43.3838 22.2344 43.6416 22.2344C43.8916 22.2344 44.1104 22.3255 44.2979 22.5078C44.4854 22.6901 44.5791 22.9089 44.5791 23.1641C44.5791 23.3359 44.5348 23.4935 44.4463 23.6367C44.3604 23.7773 44.2471 23.8906 44.1064 23.9766C43.9658 24.0599 43.8109 24.1016 43.6416 24.1016ZM43.6416 19.8984C43.3838 19.8984 43.1624 19.8073 42.9775 19.625C42.7952 19.4427 42.7041 19.2214 42.7041 18.9609C42.7041 18.7057 42.7952 18.4883 42.9775 18.3086C43.1624 18.1263 43.3838 18.0352 43.6416 18.0352C43.8916 18.0352 44.1104 18.1263 44.2979 18.3086C44.4854 18.4883 44.5791 18.7057 44.5791 18.9609C44.5791 19.1354 44.5348 19.2943 44.4463 19.4375C44.3604 19.5781 44.2471 19.6901 44.1064 19.7734C43.9658 19.8568 43.8109 19.8984 43.6416 19.8984ZM45.9063 37V29H50.7031V29.8594H46.875V32.5625H50.3438V33.4219H46.875V37H45.9063ZM52.2373 37V31H53.1592V37H52.2373ZM52.7061 30C52.5264 30 52.3714 29.9388 52.2412 29.8164C52.1136 29.694 52.0498 29.5469 52.0498 29.375C52.0498 29.2031 52.1136 29.056 52.2412 28.9336C52.3714 28.8112 52.5264 28.75 52.7061 28.75C52.8857 28.75 53.0394 28.8112 53.167 28.9336C53.2972 29.056 53.3623 29.2031 53.3623 29.375C53.3623 29.5469 53.2972 29.694 53.167 29.8164C53.0394 29.9388 52.8857 30 52.7061 30ZM55.7695 29V37H54.8477V29H55.7695ZM59.9736 37.125C59.3955 37.125 58.8968 36.9974 58.4775 36.7422C58.0609 36.4844 57.7393 36.125 57.5127 35.6641C57.2887 35.2005 57.1768 34.6615 57.1768 34.0469C57.1768 33.4323 57.2887 32.8906 57.5127 32.4219C57.7393 31.9505 58.0544 31.5833 58.458 31.3203C58.8643 31.0547 59.3382 30.9219 59.8799 30.9219C60.1924 30.9219 60.501 30.974 60.8057 31.0781C61.1104 31.1823 61.3877 31.3516 61.6377 31.5859C61.8877 31.8177 62.0869 32.125 62.2354 32.5078C62.3838 32.8906 62.458 33.362 62.458 33.9219V34.3125H57.833V33.5156H61.5205C61.5205 33.1771 61.4528 32.875 61.3174 32.6094C61.1846 32.3437 60.9945 32.1341 60.7471 31.9805C60.5023 31.8268 60.2132 31.75 59.8799 31.75C59.5127 31.75 59.195 31.8411 58.9268 32.0234C58.6611 32.2031 58.4567 32.4375 58.3135 32.7266C58.1702 33.0156 58.0986 33.3255 58.0986 33.6562V34.1875C58.0986 34.6406 58.1768 35.0247 58.333 35.3398C58.4919 35.6523 58.7119 35.8906 58.9932 36.0547C59.2744 36.2161 59.6012 36.2969 59.9736 36.2969C60.2158 36.2969 60.4346 36.263 60.6299 36.1953C60.8278 36.125 60.9984 36.0208 61.1416 35.8828C61.2848 35.7422 61.3955 35.5677 61.4736 35.3594L62.3643 35.6094C62.2705 35.9115 62.113 36.1771 61.8916 36.4062C61.6702 36.6328 61.3968 36.8099 61.0713 36.9375C60.7458 37.0625 60.3799 37.125 59.9736 37.125ZM64.7822 33.3906V37H63.8604V31H64.751V31.9375H64.8291C64.9697 31.6328 65.1833 31.388 65.4697 31.2031C65.7562 31.0156 66.126 30.9219 66.5791 30.9219C66.9854 30.9219 67.3408 31.0052 67.6455 31.1719C67.9502 31.3359 68.1872 31.5859 68.3564 31.9219C68.5257 32.2552 68.6104 32.6771 68.6104 33.1875V37H67.6885V33.25C67.6885 32.7786 67.5661 32.4115 67.3213 32.1484C67.0765 31.8828 66.7406 31.75 66.3135 31.75C66.0192 31.75 65.7562 31.8138 65.5244 31.9414C65.2952 32.069 65.1143 32.2552 64.9814 32.5C64.8486 32.7448 64.7822 33.0417 64.7822 33.3906ZM72.0605 37.1406C71.6803 37.1406 71.3353 37.069 71.0254 36.9258C70.7155 36.7799 70.4694 36.5703 70.2871 36.2969C70.1048 36.0208 70.0137 35.6875 70.0137 35.2969C70.0137 34.9531 70.0814 34.6745 70.2168 34.4609C70.3522 34.2448 70.5332 34.0755 70.7598 33.9531C70.9863 33.8307 71.2363 33.7396 71.5098 33.6797C71.7858 33.6172 72.0632 33.5677 72.3418 33.5313C72.7064 33.4844 73.002 33.4492 73.2285 33.4258C73.4577 33.3997 73.6243 33.3568 73.7285 33.2969C73.8353 33.237 73.8887 33.1328 73.8887 32.9844V32.9531C73.8887 32.5677 73.7832 32.2682 73.5723 32.0547C73.3639 31.8411 73.0475 31.7344 72.623 31.7344C72.1829 31.7344 71.8379 31.8307 71.5879 32.0234C71.3379 32.2161 71.1621 32.4219 71.0605 32.6406L70.1855 32.3281C70.3418 31.9635 70.5501 31.6797 70.8105 31.4766C71.0736 31.2708 71.36 31.1276 71.6699 31.0469C71.9824 30.9635 72.2897 30.9219 72.5918 30.9219C72.7845 30.9219 73.0059 30.9453 73.2559 30.9922C73.5085 31.0365 73.752 31.1289 73.9863 31.2695C74.2233 31.4102 74.4199 31.6224 74.5762 31.9062C74.7324 32.1901 74.8105 32.5703 74.8105 33.0469V37H73.8887V36.1875H73.8418C73.7793 36.3177 73.6751 36.457 73.5293 36.6055C73.3835 36.7539 73.1895 36.8802 72.9473 36.9844C72.7051 37.0885 72.4095 37.1406 72.0605 37.1406ZM72.2012 36.3125C72.5658 36.3125 72.873 36.2409 73.123 36.0977C73.3757 35.9544 73.5658 35.7695 73.6934 35.543C73.8236 35.3164 73.8887 35.0781 73.8887 34.8281V33.9844C73.8496 34.0312 73.7637 34.0742 73.6309 34.1133C73.5007 34.1497 73.3496 34.1823 73.1777 34.2109C73.0085 34.237 72.8431 34.2604 72.6816 34.2812C72.5228 34.2995 72.3939 34.3151 72.2949 34.3281C72.0553 34.3594 71.8314 34.4102 71.623 34.4805C71.4173 34.5482 71.2507 34.651 71.123 34.7891C70.998 34.9245 70.9355 35.1094 70.9355 35.3437C70.9355 35.6641 71.054 35.9062 71.291 36.0703C71.5306 36.2318 71.834 36.3125 72.2012 36.3125ZM76.4932 37V31H77.3838V31.9375H77.4619C77.5869 31.6172 77.7887 31.3685 78.0674 31.1914C78.346 31.0117 78.6807 30.9219 79.0713 30.9219C79.4671 30.9219 79.7965 31.0117 80.0596 31.1914C80.3252 31.3685 80.5322 31.6172 80.6807 31.9375H80.7432C80.8968 31.6276 81.1273 31.3815 81.4346 31.1992C81.7419 31.0143 82.1104 30.9219 82.54 30.9219C83.0765 30.9219 83.5153 31.0898 83.8564 31.4258C84.1976 31.7591 84.3682 32.2786 84.3682 32.9844V37H83.4463V32.9844C83.4463 32.5417 83.3252 32.2253 83.083 32.0352C82.8408 31.8451 82.5557 31.75 82.2275 31.75C81.8057 31.75 81.4788 31.8776 81.2471 32.1328C81.0153 32.3854 80.8994 32.7057 80.8994 33.0937V37H79.9619V32.8906C79.9619 32.5495 79.8512 32.2747 79.6299 32.0664C79.4085 31.8555 79.1234 31.75 78.7744 31.75C78.5348 31.75 78.3109 31.8138 78.1025 31.9414C77.8968 32.069 77.7301 32.2461 77.6025 32.4727C77.4775 32.6966 77.415 32.9557 77.415 33.25V37H76.4932ZM88.5693 37.125C87.9912 37.125 87.4925 36.9974 87.0732 36.7422C86.6566 36.4844 86.335 36.125 86.1084 35.6641C85.8844 35.2005 85.7725 34.6615 85.7725 34.0469C85.7725 33.4323 85.8844 32.8906 86.1084 32.4219C86.335 31.9505 86.6501 31.5833 87.0537 31.3203C87.46 31.0547 87.9339 30.9219 88.4756 30.9219C88.7881 30.9219 89.0967 30.974 89.4014 31.0781C89.7061 31.1823 89.9834 31.3516 90.2334 31.5859C90.4834 31.8177 90.6826 32.125 90.8311 32.5078C90.9795 32.8906 91.0537 33.362 91.0537 33.9219V34.3125H86.4287V33.5156H90.1162C90.1162 33.1771 90.0485 32.875 89.9131 32.6094C89.7803 32.3437 89.5902 32.1341 89.3428 31.9805C89.098 31.8268 88.8089 31.75 88.4756 31.75C88.1084 31.75 87.7907 31.8411 87.5225 32.0234C87.2568 32.2031 87.0524 32.4375 86.9092 32.7266C86.766 33.0156 86.6943 33.3255 86.6943 33.6562V34.1875C86.6943 34.6406 86.7725 35.0247 86.9287 35.3398C87.0876 35.6523 87.3076 35.8906 87.5889 36.0547C87.8701 36.2161 88.1969 36.2969 88.5693 36.2969C88.8115 36.2969 89.0303 36.263 89.2256 36.1953C89.4235 36.125 89.5941 36.0208 89.7373 35.8828C89.8805 35.7422 89.9912 35.5677 90.0693 35.3594L90.96 35.6094C90.8662 35.9115 90.7087 36.1771 90.4873 36.4062C90.266 36.6328 89.9925 36.8099 89.667 36.9375C89.3415 37.0625 88.9756 37.125 88.5693 37.125ZM93.8311 35.9062L93.7686 36.3281C93.7243 36.625 93.6566 36.9427 93.5654 37.2813C93.4769 37.6198 93.3844 37.9388 93.2881 38.2383C93.1917 38.5378 93.1123 38.776 93.0498 38.9531H92.3467C92.3805 38.7865 92.4248 38.5664 92.4795 38.293C92.5342 38.0195 92.5889 37.7135 92.6436 37.375C92.7008 37.0391 92.7477 36.6953 92.7842 36.3437L92.8311 35.9062H93.8311ZM45.9063 50V42H50.7031V42.8594H46.875V45.5625H50.3438V46.4219H46.875V50H45.9063ZM52.2373 50V44H53.1592V50H52.2373ZM52.7061 43C52.5264 43 52.3714 42.9388 52.2412 42.8164C52.1136 42.694 52.0498 42.5469 52.0498 42.375C52.0498 42.2031 52.1136 42.056 52.2412 41.9336C52.3714 41.8112 52.5264 41.75 52.7061 41.75C52.8857 41.75 53.0394 41.8112 53.167 41.9336C53.2972 42.056 53.3623 42.2031 53.3623 42.375C53.3623 42.5469 53.2972 42.694 53.167 42.8164C53.0394 42.9388 52.8857 43 52.7061 43ZM55.7695 42V50H54.8477V42H55.7695ZM59.9736 50.125C59.3955 50.125 58.8968 49.9974 58.4775 49.7422C58.0609 49.4844 57.7393 49.125 57.5127 48.6641C57.2887 48.2005 57.1768 47.6615 57.1768 47.0469C57.1768 46.4323 57.2887 45.8906 57.5127 45.4219C57.7393 44.9505 58.0544 44.5833 58.458 44.3203C58.8643 44.0547 59.3382 43.9219 59.8799 43.9219C60.1924 43.9219 60.501 43.974 60.8057 44.0781C61.1104 44.1823 61.3877 44.3516 61.6377 44.5859C61.8877 44.8177 62.0869 45.125 62.2354 45.5078C62.3838 45.8906 62.458 46.362 62.458 46.9219V47.3125H57.833V46.5156H61.5205C61.5205 46.1771 61.4528 45.875 61.3174 45.6094C61.1846 45.3437 60.9945 45.1341 60.7471 44.9805C60.5023 44.8268 60.2132 44.75 59.8799 44.75C59.5127 44.75 59.195 44.8411 58.9268 45.0234C58.6611 45.2031 58.4567 45.4375 58.3135 45.7266C58.1702 46.0156 58.0986 46.3255 58.0986 46.6562V47.1875C58.0986 47.6406 58.1768 48.0247 58.333 48.3398C58.4919 48.6523 58.7119 48.8906 58.9932 49.0547C59.2744 49.2161 59.6012 49.2969 59.9736 49.2969C60.2158 49.2969 60.4346 49.263 60.6299 49.1953C60.8278 49.125 60.9984 49.0208 61.1416 48.8828C61.2848 48.7422 61.3955 48.5677 61.4736 48.3594L62.3643 48.6094C62.2705 48.9115 62.113 49.1771 61.8916 49.4062C61.6702 49.6328 61.3968 49.8099 61.0713 49.9375C60.7458 50.0625 60.3799 50.125 59.9736 50.125ZM63.9854 50V42H66.6885C67.3161 42 67.8291 42.1133 68.2275 42.3398C68.6286 42.5638 68.9255 42.8672 69.1182 43.25C69.3109 43.6328 69.4072 44.0599 69.4072 44.5312C69.4072 45.0026 69.3109 45.431 69.1182 45.8164C68.9281 46.2018 68.6338 46.5091 68.2354 46.7383C67.8369 46.9648 67.3265 47.0781 66.7041 47.0781H64.7666V46.2188H66.6729C67.1025 46.2188 67.4476 46.1445 67.708 45.9961C67.9684 45.8477 68.1572 45.6471 68.2744 45.3945C68.3942 45.1393 68.4541 44.8516 68.4541 44.5312C68.4541 44.2109 68.3942 43.9245 68.2744 43.6719C68.1572 43.4193 67.9671 43.2214 67.7041 43.0781C67.4411 42.9323 67.0921 42.8594 66.6572 42.8594H64.9541V50H63.9854ZM72.6084 50.1406C72.2282 50.1406 71.8831 50.069 71.5732 49.9258C71.2633 49.7799 71.0173 49.5703 70.835 49.2969C70.6527 49.0208 70.5615 48.6875 70.5615 48.2969C70.5615 47.9531 70.6292 47.6745 70.7646 47.4609C70.9001 47.2448 71.0811 47.0755 71.3076 46.9531C71.5342 46.8307 71.7842 46.7396 72.0576 46.6797C72.3337 46.6172 72.611 46.5677 72.8896 46.5313C73.2542 46.4844 73.5498 46.4492 73.7764 46.4258C74.0055 46.3997 74.1722 46.3568 74.2764 46.2969C74.3831 46.237 74.4365 46.1328 74.4365 45.9844V45.9531C74.4365 45.5677 74.3311 45.2682 74.1201 45.0547C73.9118 44.8411 73.5954 44.7344 73.1709 44.7344C72.7308 44.7344 72.3857 44.8307 72.1357 45.0234C71.8857 45.2161 71.71 45.4219 71.6084 45.6406L70.7334 45.3281C70.8896 44.9635 71.098 44.6797 71.3584 44.4766C71.6214 44.2708 71.9079 44.1276 72.2178 44.0469C72.5303 43.9635 72.8376 43.9219 73.1396 43.9219C73.3324 43.9219 73.5537 43.9453 73.8037 43.9922C74.0563 44.0365 74.2998 44.1289 74.5342 44.2695C74.7712 44.4102 74.9678 44.6224 75.124 44.9062C75.2803 45.1901 75.3584 45.5703 75.3584 46.0469V50H74.4365V49.1875H74.3896C74.3271 49.3177 74.223 49.457 74.0771 49.6055C73.9313 49.7539 73.7373 49.8802 73.4951 49.9844C73.2529 50.0885 72.9574 50.1406 72.6084 50.1406ZM72.749 49.3125C73.1136 49.3125 73.4209 49.2409 73.6709 49.0977C73.9235 48.9544 74.1136 48.7695 74.2412 48.543C74.3714 48.3164 74.4365 48.0781 74.4365 47.8281V46.9844C74.3975 47.0312 74.3115 47.0742 74.1787 47.1133C74.0485 47.1497 73.8975 47.1823 73.7256 47.2109C73.5563 47.237 73.391 47.2604 73.2295 47.2812C73.0706 47.2995 72.9417 47.3151 72.8428 47.3281C72.6032 47.3594 72.3792 47.4102 72.1709 47.4805C71.9652 47.5482 71.7985 47.651 71.6709 47.7891C71.5459 47.9245 71.4834 48.1094 71.4834 48.3437C71.4834 48.6641 71.6019 48.9062 71.8389 49.0703C72.0785 49.2318 72.3818 49.3125 72.749 49.3125ZM79.6504 44V44.7812H76.541V44H79.6504ZM77.4473 42.5625H78.3691V48.2812C78.3691 48.5417 78.4069 48.737 78.4824 48.8672C78.5605 48.9948 78.6595 49.0807 78.7793 49.125C78.9017 49.1667 79.0306 49.1875 79.166 49.1875C79.2676 49.1875 79.3509 49.1823 79.416 49.1719C79.4811 49.1589 79.5332 49.1484 79.5723 49.1406L79.7598 49.9687C79.6973 49.9922 79.61 50.0156 79.498 50.0391C79.3861 50.0651 79.2441 50.0781 79.0723 50.0781C78.8118 50.0781 78.5566 50.0221 78.3066 49.9102C78.0592 49.7982 77.8535 49.6276 77.6895 49.3984C77.528 49.1693 77.4473 48.8802 77.4473 48.5312V42.5625ZM82.0879 46.3906V50H81.166V42H82.0879V44.9375H82.166C82.3066 44.6276 82.5176 44.3815 82.7988 44.1992C83.0827 44.0143 83.4603 43.9219 83.9316 43.9219C84.3405 43.9219 84.6986 44.0039 85.0059 44.168C85.3132 44.3294 85.5514 44.5781 85.7207 44.9141C85.8926 45.2474 85.9785 45.6719 85.9785 46.1875V50H85.0566V46.25C85.0566 45.7734 84.9329 45.4049 84.6855 45.1445C84.4408 44.8815 84.1009 44.75 83.666 44.75C83.3639 44.75 83.0931 44.8138 82.8535 44.9414C82.6165 45.069 82.429 45.2552 82.291 45.5C82.1556 45.7448 82.0879 46.0417 82.0879 46.3906ZM89.04 48.9062L88.9775 49.3281C88.9333 49.625 88.8656 49.9427 88.7744 50.2813C88.6859 50.6198 88.5934 50.9388 88.4971 51.2383C88.4007 51.5378 88.3213 51.776 88.2588 51.9531H87.5557C87.5895 51.7865 87.6338 51.5664 87.6885 51.293C87.7432 51.0195 87.7979 50.7135 87.8525 50.375C87.9098 50.0391 87.9567 49.6953 87.9932 49.3437L88.04 48.9062H89.04ZM51.1563 55H52.125V60.2969C52.125 60.8437 51.9961 61.332 51.7383 61.7617C51.4831 62.1888 51.1224 62.526 50.6563 62.7734C50.1901 63.0182 49.6432 63.1406 49.0156 63.1406C48.388 63.1406 47.8411 63.0182 47.375 62.7734C46.9089 62.526 46.5469 62.1888 46.2891 61.7617C46.0339 61.332 45.9063 60.8437 45.9063 60.2969V55H46.875V60.2188C46.875 60.6094 46.9609 60.957 47.1328 61.2617C47.3047 61.5638 47.5495 61.8021 47.8672 61.9766C48.1875 62.1484 48.5703 62.2344 49.0156 62.2344C49.4609 62.2344 49.8438 62.1484 50.1641 61.9766C50.4844 61.8021 50.7292 61.5638 50.8984 61.2617C51.0703 60.957 51.1563 60.6094 51.1563 60.2188V55ZM53.9346 65.25V57H54.8252V57.9531H54.9346C55.0023 57.849 55.096 57.7161 55.2158 57.5547C55.3382 57.3906 55.5127 57.2448 55.7393 57.1172C55.9684 56.987 56.2783 56.9219 56.6689 56.9219C57.1742 56.9219 57.6195 57.0482 58.0049 57.3008C58.3903 57.5534 58.6911 57.9115 58.9072 58.375C59.1234 58.8385 59.2314 59.3854 59.2314 60.0156C59.2314 60.651 59.1234 61.2018 58.9072 61.668C58.6911 62.1315 58.3916 62.4909 58.0088 62.7461C57.626 62.9987 57.1846 63.125 56.6846 63.125C56.2992 63.125 55.9906 63.0612 55.7588 62.9336C55.527 62.8034 55.3486 62.6562 55.2236 62.4922C55.0986 62.3255 55.0023 62.1875 54.9346 62.0781H54.8564V65.25H53.9346ZM54.8408 60C54.8408 60.4531 54.9072 60.8529 55.04 61.1992C55.1729 61.543 55.3669 61.8125 55.6221 62.0078C55.8773 62.2005 56.1898 62.2969 56.5596 62.2969C56.945 62.2969 57.2666 62.1953 57.5244 61.9922C57.7848 61.7865 57.9801 61.5104 58.1104 61.1641C58.2432 60.8151 58.3096 60.4271 58.3096 60C58.3096 59.5781 58.2445 59.1979 58.1143 58.8594C57.9867 58.5182 57.7926 58.2487 57.5322 58.0508C57.2744 57.8503 56.9502 57.75 56.5596 57.75C56.1846 57.75 55.8695 57.8451 55.6143 58.0352C55.359 58.2227 55.1663 58.4857 55.0361 58.8242C54.9059 59.1602 54.8408 59.5521 54.8408 60ZM61.5596 55V63H60.6377V55H61.5596ZM65.6855 63.125C65.1439 63.125 64.6686 62.9961 64.2598 62.7383C63.8535 62.4805 63.5358 62.1198 63.3066 61.6562C63.0801 61.1927 62.9668 60.651 62.9668 60.0312C62.9668 59.4062 63.0801 58.8607 63.3066 58.3945C63.5358 57.9284 63.8535 57.5664 64.2598 57.3086C64.6686 57.0508 65.1439 56.9219 65.6855 56.9219C66.2272 56.9219 66.7012 57.0508 67.1074 57.3086C67.5163 57.5664 67.834 57.9284 68.0605 58.3945C68.2897 58.8607 68.4043 59.4062 68.4043 60.0312C68.4043 60.651 68.2897 61.1927 68.0605 61.6562C67.834 62.1198 67.5163 62.4805 67.1074 62.7383C66.7012 62.9961 66.2272 63.125 65.6855 63.125ZM65.6855 62.2969C66.097 62.2969 66.4355 62.1914 66.7012 61.9805C66.9668 61.7695 67.1634 61.4922 67.291 61.1484C67.4186 60.8047 67.4824 60.4323 67.4824 60.0312C67.4824 59.6302 67.4186 59.2565 67.291 58.9102C67.1634 58.5638 66.9668 58.2839 66.7012 58.0703C66.4355 57.8568 66.097 57.75 65.6855 57.75C65.2741 57.75 64.9355 57.8568 64.6699 58.0703C64.4043 58.2839 64.2077 58.5638 64.0801 58.9102C63.9525 59.2565 63.8887 59.6302 63.8887 60.0312C63.8887 60.4323 63.9525 60.8047 64.0801 61.1484C64.2077 61.4922 64.4043 61.7695 64.6699 61.9805C64.9355 62.1914 65.2741 62.2969 65.6855 62.2969ZM71.5771 63.1406C71.1969 63.1406 70.8519 63.069 70.542 62.9258C70.2321 62.7799 69.986 62.5703 69.8037 62.2969C69.6214 62.0208 69.5303 61.6875 69.5303 61.2969C69.5303 60.9531 69.598 60.6745 69.7334 60.4609C69.8688 60.2448 70.0498 60.0755 70.2764 59.9531C70.5029 59.8307 70.7529 59.7396 71.0264 59.6797C71.3024 59.6172 71.5798 59.5677 71.8584 59.5313C72.223 59.4844 72.5186 59.4492 72.7451 59.4258C72.9743 59.3997 73.141 59.3568 73.2451 59.2969C73.3519 59.237 73.4053 59.1328 73.4053 58.9844V58.9531C73.4053 58.5677 73.2998 58.2682 73.0889 58.0547C72.8805 57.8411 72.5641 57.7344 72.1396 57.7344C71.6995 57.7344 71.3545 57.8307 71.1045 58.0234C70.8545 58.2161 70.6787 58.4219 70.5771 58.6406L69.7021 58.3281C69.8584 57.9635 70.0667 57.6797 70.3271 57.4766C70.5902 57.2708 70.8766 57.1276 71.1865 57.0469C71.499 56.9635 71.8063 56.9219 72.1084 56.9219C72.3011 56.9219 72.5225 56.9453 72.7725 56.9922C73.0251 57.0365 73.2686 57.1289 73.5029 57.2695C73.7399 57.4102 73.9365 57.6224 74.0928 57.9062C74.249 58.1901 74.3271 58.5703 74.3271 59.0469V63H73.4053V62.1875H73.3584C73.2959 62.3177 73.1917 62.457 73.0459 62.6055C72.9001 62.7539 72.7061 62.8802 72.4639 62.9844C72.2217 63.0885 71.9261 63.1406 71.5771 63.1406ZM71.7178 62.3125C72.0824 62.3125 72.3896 62.2409 72.6396 62.0977C72.8923 61.9544 73.0824 61.7695 73.21 61.543C73.3402 61.3164 73.4053 61.0781 73.4053 60.8281V59.9844C73.3662 60.0312 73.2803 60.0742 73.1475 60.1133C73.0173 60.1497 72.8662 60.1823 72.6943 60.2109C72.5251 60.237 72.3597 60.2604 72.1982 60.2812C72.0394 60.2995 71.9105 60.3151 71.8115 60.3281C71.5719 60.3594 71.348 60.4102 71.1396 60.4805C70.9339 60.5482 70.7673 60.651 70.6396 60.7891C70.5146 60.9245 70.4521 61.1094 70.4521 61.3437C70.4521 61.6641 70.5706 61.9062 70.8076 62.0703C71.0472 62.2318 71.3506 62.3125 71.7178 62.3125ZM78.2754 63.125C77.7754 63.125 77.334 62.9987 76.9512 62.7461C76.5684 62.4909 76.2689 62.1315 76.0527 61.668C75.8366 61.2018 75.7285 60.651 75.7285 60.0156C75.7285 59.3854 75.8366 58.8385 76.0527 58.375C76.2689 57.9115 76.5697 57.5534 76.9551 57.3008C77.3405 57.0482 77.7858 56.9219 78.291 56.9219C78.6816 56.9219 78.9902 56.987 79.2168 57.1172C79.446 57.2448 79.6204 57.3906 79.7402 57.5547C79.8626 57.7161 79.9577 57.849 80.0254 57.9531H80.1035V55H81.0254V63H80.1348V62.0781H80.0254C79.9577 62.1875 79.8613 62.3255 79.7363 62.4922C79.6113 62.6562 79.4329 62.8034 79.2012 62.9336C78.9694 63.0612 78.6608 63.125 78.2754 63.125ZM78.4004 62.2969C78.7702 62.2969 79.0827 62.2005 79.3379 62.0078C79.5931 61.8125 79.7871 61.543 79.9199 61.1992C80.0527 60.8529 80.1191 60.4531 80.1191 60C80.1191 59.5521 80.054 59.1602 79.9238 58.8242C79.7936 58.4857 79.6009 58.2227 79.3457 58.0352C79.0905 57.8451 78.7754 57.75 78.4004 57.75C78.0098 57.75 77.6842 57.8503 77.4238 58.0508C77.166 58.2487 76.972 58.5182 76.8418 58.8594C76.7142 59.1979 76.6504 59.5781 76.6504 60C76.6504 60.4271 76.7155 60.8151 76.8457 61.1641C76.9785 61.5104 77.1738 61.7865 77.4316 61.9922C77.6921 62.1953 78.015 62.2969 78.4004 62.2969ZM82.5293 55.8594V55H88.5293V55.8594H86.0137V63H85.0449V55.8594H82.5293ZM89.8057 65.25C89.6494 65.25 89.5101 65.237 89.3877 65.2109C89.2653 65.1875 89.1807 65.1641 89.1338 65.1406L89.3682 64.3281C89.5921 64.3854 89.79 64.4063 89.9619 64.3906C90.1338 64.375 90.2861 64.2982 90.4189 64.1602C90.5544 64.0247 90.6781 63.8047 90.79 63.5L90.9619 63.0313L88.7432 57H89.7432L91.3994 61.7812H91.4619L93.1182 57H94.1182L91.5713 63.875C91.4567 64.1849 91.3148 64.4414 91.1455 64.6445C90.9762 64.8503 90.7796 65.0026 90.5557 65.1016C90.3343 65.2005 90.0843 65.25 89.8057 65.25ZM95.335 65.25V57H96.2256V57.9531H96.335C96.4027 57.849 96.4964 57.7161 96.6162 57.5547C96.7386 57.3906 96.9131 57.2448 97.1396 57.1172C97.3688 56.987 97.6787 56.9219 98.0693 56.9219C98.5745 56.9219 99.0199 57.0482 99.4053 57.3008C99.7907 57.5534 100.091 57.9115 100.308 58.375C100.524 58.8385 100.632 59.3854 100.632 60.0156C100.632 60.651 100.524 61.2018 100.308 61.668C100.091 62.1315 99.792 62.4909 99.4092 62.7461C99.0264 62.9987 98.585 63.125 98.085 63.125C97.6995 63.125 97.391 63.0612 97.1592 62.9336C96.9274 62.8034 96.749 62.6562 96.624 62.4922C96.499 62.3255 96.4027 62.1875 96.335 62.0781H96.2568V65.25H95.335ZM96.2412 60C96.2412 60.4531 96.3076 60.8529 96.4404 61.1992C96.5732 61.543 96.7673 61.8125 97.0225 62.0078C97.2777 62.2005 97.5902 62.2969 97.96 62.2969C98.3454 62.2969 98.667 62.1953 98.9248 61.9922C99.1852 61.7865 99.3805 61.5104 99.5107 61.1641C99.6436 60.8151 99.71 60.4271 99.71 60C99.71 59.5781 99.6449 59.1979 99.5146 58.8594C99.387 58.5182 99.193 58.2487 98.9326 58.0508C98.6748 57.8503 98.3506 57.75 97.96 57.75C97.585 57.75 97.2699 57.8451 97.0146 58.0352C96.7594 58.2227 96.5667 58.4857 96.4365 58.8242C96.3063 59.1602 96.2412 59.5521 96.2412 60ZM104.554 63.125C103.976 63.125 103.477 62.9974 103.058 62.7422C102.641 62.4844 102.319 62.125 102.093 61.6641C101.869 61.2005 101.757 60.6615 101.757 60.0469C101.757 59.4323 101.869 58.8906 102.093 58.4219C102.319 57.9505 102.634 57.5833 103.038 57.3203C103.444 57.0547 103.918 56.9219 104.46 56.9219C104.772 56.9219 105.081 56.974 105.386 57.0781C105.69 57.1823 105.968 57.3516 106.218 57.5859C106.468 57.8177 106.667 58.125 106.815 58.5078C106.964 58.8906 107.038 59.362 107.038 59.9219V60.3125H102.413V59.5156H106.101C106.101 59.1771 106.033 58.875 105.897 58.6094C105.765 58.3437 105.575 58.1341 105.327 57.9805C105.082 57.8268 104.793 57.75 104.46 57.75C104.093 57.75 103.775 57.8411 103.507 58.0234C103.241 58.2031 103.037 58.4375 102.894 58.7266C102.75 59.0156 102.679 59.3255 102.679 59.6562V60.1875C102.679 60.6406 102.757 61.0247 102.913 61.3398C103.072 61.6523 103.292 61.8906 103.573 62.0547C103.854 62.2161 104.181 62.2969 104.554 62.2969C104.796 62.2969 105.015 62.263 105.21 62.1953C105.408 62.125 105.578 62.0208 105.722 61.8828C105.865 61.7422 105.976 61.5677 106.054 61.3594L106.944 61.6094C106.851 61.9115 106.693 62.1771 106.472 62.4062C106.25 62.6328 105.977 62.8099 105.651 62.9375C105.326 63.0625 104.96 63.125 104.554 63.125ZM109.815 61.9062L109.753 62.3281C109.709 62.625 109.641 62.9427 109.55 63.2813C109.461 63.6198 109.369 63.9388 109.272 64.2383C109.176 64.5378 109.097 64.776 109.034 64.9531H108.331C108.365 64.7865 108.409 64.5664 108.464 64.293C108.519 64.0195 108.573 63.7135 108.628 63.375C108.685 63.0391 108.732 62.6953 108.769 62.3437L108.815 61.9062H109.815Z" fill="black"/>
<path d="M95.2225 150.283C95.931 150.712 96.8534 150.486 97.2828 149.777L104.28 138.232C104.709 137.524 104.483 136.601 103.775 136.172C103.066 135.743 102.144 135.969 101.714 136.677L95.4947 146.94L85.2323 140.72C84.5238 140.291 83.6014 140.517 83.172 141.225C82.7427 141.934 82.9689 142.856 83.6774 143.286L95.2225 150.283ZM81.5432 96.3573L94.5432 149.357L97.4568 148.643L84.4568 95.6427L81.5432 96.3573Z" fill="black"/>
<path d="M137.732 94.6906C137.009 94.2865 136.095 94.5451 135.691 95.2683L129.105 107.053C128.701 107.776 128.96 108.69 129.683 109.094C130.406 109.498 131.32 109.24 131.724 108.516L137.578 98.0411L148.053 103.895C148.776 104.299 149.69 104.04 150.094 103.317C150.498 102.594 150.24 101.68 149.516 101.276L137.732 94.6906ZM153.443 148.592L138.443 95.5915L135.557 96.4085L150.557 149.408L153.443 148.592Z" fill="black"/>
<defs>
<filter id="filter0_d_1_25" x="106" y="189" width="169" height="109" filterUnits="userSpaceOnUse" color-interpolation-filters="sRGB">
<feFlood flood-opacity="0" result="BackgroundImageFix"/>
<feColorMatrix in="SourceAlpha" type="matrix" values="0 0 0 0 0 0 0 0 0 0 0 0 0 0 0 0 0 0 127 0" result="hardAlpha"/>
<feOffset dy="4"/>
<feGaussianBlur stdDeviation="2"/>
<feComposite in2="hardAlpha" operator="out"/>
<feColorMatrix type="matrix" values="0 0 0 0 0 0 0 0 0 0 0 0 0 0 0 0 0 0 0.25 0"/>
<feBlend mode="normal" in2="BackgroundImageFix" result="effect1_dropShadow_1_25"/>
<feBlend mode="normal" in="SourceGraphic" in2="effect1_dropShadow_1_25" result="shape"/>
</filter>
<filter id="filter1_d_1_25" x="360" y="589" width="85" height="80" filterUnits="userSpaceOnUse" color-interpolation-filters="sRGB">
<feFlood flood-opacity="0" result="BackgroundImageFix"/>
<feColorMatrix in="SourceAlpha" type="matrix" values="0 0 0 0 0 0 0 0 0 0 0 0 0 0 0 0 0 0 127 0" result="hardAlpha"/>
<feOffset dy="4"/>
<feGaussianBlur stdDeviation="2"/>
<feComposite in2="hardAlpha" operator="out"/>
<feColorMatrix type="matrix" values="0 0 0 0 0 0 0 0 0 0 0 0 0 0 0 0 0 0 0.25 0"/>
<feBlend mode="normal" in2="BackgroundImageFix" result="effect1_dropShadow_1_25"/>
<feBlend mode="normal" in="SourceGraphic" in2="effect1_dropShadow_1_25" result="shape"/>
</filter>
<filter id="filter2_d_1_25" x="254" y="589" width="85" height="80" filterUnits="userSpaceOnUse" color-interpolation-filters="sRGB">
<feFlood flood-opacity="0" result="BackgroundImageFix"/>
<feColorMatrix in="SourceAlpha" type="matrix" values="0 0 0 0 0 0 0 0 0 0 0 0 0 0 0 0 0 0 127 0" result="hardAlpha"/>
<feOffset dy="4"/>
<feGaussianBlur stdDeviation="2"/>
<feComposite in2="hardAlpha" operator="out"/>
<feColorMatrix type="matrix" values="0 0 0 0 0 0 0 0 0 0 0 0 0 0 0 0 0 0 0.25 0"/>
<feBlend mode="normal" in2="BackgroundImageFix" result="effect1_dropShadow_1_25"/>
<feBlend mode="normal" in="SourceGraphic" in2="effect1_dropShadow_1_25" result="shape"/>
</filter>
<filter id="filter3_d_1_25" x="148" y="589" width="85" height="80" filterUnits="userSpaceOnUse" color-interpolation-filters="sRGB">
<feFlood flood-opacity="0" result="BackgroundImageFix"/>
<feColorMatrix in="SourceAlpha" type="matrix" values="0 0 0 0 0 0 0 0 0 0 0 0 0 0 0 0 0 0 127 0" result="hardAlpha"/>
<feOffset dy="4"/>
<feGaussianBlur stdDeviation="2"/>
<feComposite in2="hardAlpha" operator="out"/>
<feColorMatrix type="matrix" values="0 0 0 0 0 0 0 0 0 0 0 0 0 0 0 0 0 0 0.25 0"/>
<feBlend mode="normal" in2="BackgroundImageFix" result="effect1_dropShadow_1_25"/>
<feBlend mode="normal" in="SourceGraphic" in2="effect1_dropShadow_1_25" result="shape"/>
</filter>
<filter id="filter4_d_1_25" x="193.643" y="511.011" width="204.828" height="33.3075" filterUnits="userSpaceOnUse" color-interpolation-filters="sRGB">
<feFlood flood-opacity="0" result="BackgroundImageFix"/>
<feColorMatrix in="SourceAlpha" type="matrix" values="0 0 0 0 0 0 0 0 0 0 0 0 0 0 0 0 0 0 127 0" result="hardAlpha"/>
<feOffset dy="4"/>
<feGaussianBlur stdDeviation="2"/>
<feComposite in2="hardAlpha" operator="out"/>
<feColorMatrix type="matrix" values="0 0 0 0 0 0 0 0 0 0 0 0 0 0 0 0 0 0 0.25 0"/>
<feBlend mode="normal" in2="BackgroundImageFix" result="effect1_dropShadow_1_25"/>
<feBlend mode="normal" in="SourceGraphic" in2="effect1_dropShadow_1_25" result="shape"/>
</filter>
</defs>
</svg>
